<?xml version="1.0" encoding="UTF-8"?>
<svg width="256" height="256" viewBox="0 0 256 256" fill="none" xmlns="http://www.w3.org/2000/svg">
  <defs>
    <linearGradient id="gold" x1="48" y1="24" x2="208" y2="232" gradientUnits="userSpaceOnUse">
      <stop offset="0" stop-color="#FFF0C2"/>
      <stop offset="0.52" stop-color="#D7A84A"/>
      <stop offset="1" stop-color="#7A3B12"/>
    </linearGradient>
    <linearGradient id="red" x1="32" y1="32" x2="224" y2="224" gradientUnits="userSpaceOnUse">
      <stop offset="0" stop-color="#C6222E"/>
      <stop offset="1" stop-color="#3A0A0E"/>
    </linearGradient>
  </defs>

  <rect width="256" height="256" rx="56" fill="#080A0F"/>
  <rect x="10" y="10" width="236" height="236" rx="48" fill="#111620" stroke="#2B313D" stroke-width="2"/>

  <path d="M128 22L222 74V182L128 234L34 182V74L128 22Z" fill="#0C1017" stroke="url(#red)" stroke-width="8"/>
  <path d="M128 42L204 84V172L128 214L52 172V84L128 42Z" fill="#151A22" stroke="#3C4654" stroke-width="3"/>
  <path d="M128 61L184 94V162L128 195L72 162V94L128 61Z" fill="#090B10" stroke="#D7A84A" stroke-width="4"/>
  <path d="M128 78L169 102V154L128 178L87 154V102L128 78Z" fill="url(#gold)" opacity="0.95"/>

  <path d="M92 65H112V119L155 65H178L134 121L181 191H156L121 137L112 148V191H92V65Z" fill="#F8F0D5" stroke="#5B250F" stroke-width="2"/>

  <path d="M128 35L135 53H154L139 64L145 82L128 71L111 82L117 64L102 53H121L128 35Z" fill="#E2B75D"/>
  <path d="M62 190L82 176" stroke="#B3212B" stroke-width="6" stroke-linecap="round"/>
  <path d="M194 190L174 176" stroke="#B3212B" stroke-width="6" stroke-linecap="round"/>
  <circle cx="128" cy="128" r="104" stroke="#FFFFFF" stroke-opacity="0.08" stroke-width="2"/>
</svg>
